<svg xmlns="http://www.w3.org/2000/svg" height="512pt" version="1.1" viewBox="0 0 512 512" width="512pt">
<g id="surface1">
<path d="M 512 256 C 512 397.386719 397.386719 512 256 512 C 114.613281 512 0 397.386719 0 256 C 0 114.613281 114.613281 0 256 0 C 397.386719 0 512 114.613281 512 256 Z M 512 256 " style=" stroke:none;fill-rule:nonzero;fill:rgb(25.490196%,28.627451%,32.156863%);fill-opacity:1;" />
<path d="M 512 256 C 512 254.589844 511.96875 253.183594 511.945312 251.78125 L 337.167969 77 L 274.214844 99.730469 L 265.796875 140.128906 L 218.402344 92.730469 L 217.652344 105.003906 L 195.542969 82.894531 L 165 89.941406 L 161.6875 116.289062 L 252 206.339844 L 239.378906 266.910156 L 149.207031 176.742188 L 112.515625 179.964844 L 135.054688 238.996094 L 122.152344 247.132812 L 163.007812 287.988281 L 105.515625 287.988281 L 82.5 275.5 L 70.171875 305.898438 L 143.589844 379.316406 L 135.054688 405.269531 L 241.359375 511.574219 C 246.207031 511.847656 251.085938 512 256 512 C 397.386719 512 512 397.386719 512 256 Z M 512 256 " style=" stroke:none;fill-rule:nonzero;fill:rgb(20%,22.352941%,25.098039%);fill-opacity:1;" />
<path d="M 136.152344 233.132812 L 136.152344 212.539062 C 145.941406 209.59375 153.097656 200.496094 153.097656 189.757812 C 153.097656 176.636719 142.425781 165.964844 129.304688 165.964844 C 116.1875 165.964844 105.515625 176.636719 105.515625 189.757812 C 105.515625 200.382812 112.515625 209.402344 122.152344 212.449219 L 122.152344 247.132812 L 200.050781 247.132812 L 200.050781 233.132812 Z M 129.308594 179.964844 C 134.707031 179.964844 139.097656 184.359375 139.097656 189.757812 C 139.097656 195.15625 134.707031 199.550781 129.308594 199.550781 C 123.90625 199.550781 119.515625 195.15625 119.515625 189.757812 C 119.515625 184.359375 123.90625 179.964844 129.308594 179.964844 Z M 129.308594 179.964844 " style=" stroke:none;fill-rule:nonzero;fill:rgb(100%,100%,100%);fill-opacity:1;" />
<path d="M 195.542969 284.027344 L 111.464844 284.027344 C 108.46875 274.316406 99.410156 267.234375 88.726562 267.234375 C 75.605469 267.234375 64.933594 277.910156 64.933594 291.027344 C 64.933594 304.148438 75.605469 314.820312 88.726562 314.820312 C 99.410156 314.820312 108.46875 307.742188 111.464844 298.027344 L 195.542969 298.027344 Z M 88.726562 300.820312 C 83.328125 300.820312 78.933594 296.425781 78.933594 291.027344 C 78.933594 285.628906 83.328125 281.234375 88.726562 281.234375 C 94.125 281.234375 98.519531 285.628906 98.519531 291.027344 C 98.519531 296.425781 94.125 300.820312 88.726562 300.820312 Z M 88.726562 300.820312 " style=" stroke:none;fill-rule:nonzero;fill:rgb(100%,100%,100%);fill-opacity:1;" />
<path d="M 227.261719 338.09375 L 227.261719 324.09375 L 144.894531 324.09375 L 144.894531 365.738281 C 135.179688 368.734375 128.101562 377.792969 128.101562 388.476562 C 128.101562 401.597656 138.773438 412.269531 151.894531 412.269531 C 165.011719 412.269531 175.6875 401.597656 175.6875 388.476562 C 175.6875 377.792969 168.609375 368.734375 158.894531 365.738281 L 158.894531 338.09375 Z M 151.894531 398.269531 C 146.496094 398.269531 142.101562 393.878906 142.101562 388.480469 C 142.101562 383.078125 146.496094 378.6875 151.894531 378.6875 C 157.292969 378.6875 161.6875 383.078125 161.6875 388.480469 C 161.6875 393.878906 157.292969 398.269531 151.894531 398.269531 Z M 151.894531 398.269531 " style=" stroke:none;fill-rule:nonzero;fill:rgb(100%,100%,100%);fill-opacity:1;" />
<path d="M 410.628906 165.964844 C 399.945312 165.964844 390.886719 173.042969 387.890625 182.757812 L 336.925781 182.757812 L 336.925781 196.757812 L 387.890625 196.757812 C 390.886719 206.46875 399.945312 213.550781 410.628906 213.550781 C 423.75 213.550781 434.421875 202.875 434.421875 189.757812 C 434.421875 176.636719 423.75 165.964844 410.628906 165.964844 Z M 410.628906 199.550781 C 405.230469 199.550781 400.839844 195.15625 400.839844 189.757812 C 400.839844 184.359375 405.230469 179.964844 410.628906 179.964844 C 416.027344 179.964844 420.421875 184.359375 420.421875 189.757812 C 420.421875 195.15625 416.027344 199.550781 410.628906 199.550781 Z M 410.628906 199.550781 " style=" stroke:none;fill-rule:nonzero;fill:rgb(91.372549%,92.941176%,96.078431%);fill-opacity:1;" />
<path d="M 320.132812 69.796875 C 309.449219 69.796875 300.390625 76.875 297.394531 86.585938 L 265.039062 86.585938 L 265.039062 197.21875 L 279.039062 197.21875 L 279.039062 100.585938 L 297.394531 100.585938 C 300.390625 110.300781 309.449219 117.378906 320.132812 117.378906 C 333.253906 117.378906 343.925781 106.707031 343.925781 93.585938 C 343.925781 80.46875 333.253906 69.796875 320.132812 69.796875 Z M 320.132812 103.378906 C 314.734375 103.378906 310.339844 98.984375 310.339844 93.585938 C 310.339844 88.1875 314.734375 83.796875 320.132812 83.796875 C 325.53125 83.796875 329.925781 88.1875 329.925781 93.585938 C 329.925781 98.984375 325.53125 103.378906 320.132812 103.378906 Z M 320.132812 103.378906 " style=" stroke:none;fill-rule:nonzero;fill:rgb(91.372549%,92.941176%,96.078431%);fill-opacity:1;" />
<path d="M 201.492188 92.730469 C 198.496094 83.019531 189.433594 75.941406 178.75 75.941406 C 165.632812 75.941406 154.957031 86.613281 154.957031 99.730469 C 154.957031 112.851562 165.632812 123.523438 178.75 123.523438 C 189.433594 123.523438 198.492188 116.445312 201.492188 106.730469 L 204.402344 106.730469 L 204.402344 163.171875 L 218.402344 163.171875 L 218.402344 92.730469 Z M 178.75 109.523438 C 173.351562 109.523438 168.957031 105.132812 168.957031 99.730469 C 168.957031 94.332031 173.351562 89.941406 178.75 89.941406 C 184.148438 89.941406 188.542969 94.332031 188.542969 99.730469 C 188.542969 105.132812 184.148438 109.523438 178.75 109.523438 Z M 178.75 109.523438 " style=" stroke:none;fill-rule:nonzero;fill:rgb(100%,100%,100%);fill-opacity:1;" />
<path d="M 421.773438 273.367188 L 421.773438 238.265625 L 328.015625 238.265625 L 328.015625 252.265625 L 407.773438 252.265625 L 407.773438 273.367188 C 398.0625 276.363281 390.980469 285.425781 390.980469 296.109375 C 390.980469 309.226562 401.65625 319.898438 414.773438 319.898438 C 427.894531 319.898438 438.566406 309.226562 438.566406 296.109375 C 438.566406 285.425781 431.488281 276.363281 421.773438 273.367188 Z M 414.773438 305.898438 C 409.375 305.898438 404.980469 301.507812 404.980469 296.109375 C 404.980469 290.710938 409.375 286.316406 414.773438 286.316406 C 420.171875 286.316406 424.566406 290.710938 424.566406 296.109375 C 424.566406 301.507812 420.175781 305.898438 414.773438 305.898438 Z M 414.773438 305.898438 " style=" stroke:none;fill-rule:nonzero;fill:rgb(91.372549%,92.941176%,96.078431%);fill-opacity:1;" />
<path d="M 367.664062 363.441406 L 367.664062 321.292969 L 294.429688 321.292969 L 294.429688 335.292969 L 353.664062 335.292969 L 353.664062 363.441406 C 343.953125 366.4375 336.875 375.5 336.875 386.183594 C 336.875 399.300781 347.546875 409.976562 360.664062 409.976562 C 373.785156 409.976562 384.460938 399.300781 384.460938 386.183594 C 384.460938 375.5 377.378906 366.4375 367.664062 363.441406 Z M 360.664062 395.976562 C 355.265625 395.976562 350.875 391.582031 350.875 386.183594 C 350.875 380.785156 355.265625 376.390625 360.664062 376.390625 C 366.066406 376.390625 370.460938 380.785156 370.460938 386.183594 C 370.460938 391.582031 366.066406 395.976562 360.664062 395.976562 Z M 360.664062 395.976562 " style=" stroke:none;fill-rule:nonzero;fill:rgb(91.372549%,92.941176%,96.078431%);fill-opacity:1;" />
<path d="M 301.429688 395.46875 L 301.429688 355.347656 L 287.429688 355.347656 L 287.429688 395.46875 C 277.71875 398.464844 270.636719 407.523438 270.636719 418.207031 C 270.636719 431.328125 281.3125 442 294.429688 442 C 307.550781 442 318.222656 431.328125 318.222656 418.207031 C 318.222656 407.523438 311.144531 398.464844 301.429688 395.46875 Z M 294.429688 428 C 289.03125 428 284.636719 423.605469 284.636719 418.207031 C 284.636719 412.808594 289.03125 408.414062 294.429688 408.414062 C 299.828125 408.414062 304.222656 412.808594 304.222656 418.207031 C 304.222656 423.605469 299.828125 428 294.429688 428 Z M 294.429688 428 " style=" stroke:none;fill-rule:nonzero;fill:rgb(91.372549%,92.941176%,96.078431%);fill-opacity:1;" />
<path d="M 303.601562 353.863281 L 255.714844 388.480469 L 207.828125 353.863281 C 184.320312 336.867188 169.429688 310.433594 167.078125 281.515625 L 157.140625 172.90625 C 157.140625 172.90625 230.097656 134.703125 255.714844 134.703125 C 281.332031 134.703125 354.292969 172.90625 354.292969 172.90625 L 344.355469 281.515625 C 342 310.429688 327.109375 336.867188 303.601562 353.863281 Z M 303.601562 353.863281 " style=" stroke:none;fill-rule:nonzero;fill:rgb(3.529412%,80.784314%,40.392157%);fill-opacity:1;" />
<path d="M 255.75 134.703125 L 255.75 388.453125 L 303.601562 353.863281 C 327.109375 336.867188 342.003906 310.433594 344.351562 281.515625 L 354.289062 172.90625 C 354.292969 172.90625 281.398438 134.738281 255.75 134.703125 Z M 255.75 134.703125 " style=" stroke:none;fill-rule:nonzero;fill:rgb(10.196078%,67.843137%,36.078431%);fill-opacity:1;" />
<path d="M 290.835938 326.136719 L 255.714844 351.523438 L 220.59375 326.136719 C 203.351562 313.671875 192.429688 294.28125 190.703125 273.074219 L 183.414062 193.414062 C 183.414062 193.414062 236.925781 165.394531 255.714844 165.394531 C 274.503906 165.394531 328.015625 193.414062 328.015625 193.414062 L 320.722656 273.074219 C 319 294.28125 308.078125 313.671875 290.835938 326.136719 Z M 290.835938 326.136719 " style=" stroke:none;fill-rule:nonzero;fill:rgb(8.235294%,90.980392%,45.490196%);fill-opacity:1;" />
<path d="M 255.75 165.398438 L 255.75 351.5 L 290.835938 326.136719 C 308.078125 313.671875 319 294.28125 320.722656 273.074219 L 328.015625 193.414062 C 328.015625 193.414062 274.570312 165.429688 255.75 165.398438 Z M 255.75 165.398438 " style=" stroke:none;fill-rule:nonzero;fill:rgb(3.529412%,80.784314%,40.392157%);fill-opacity:1;" />
</g>
</svg>